<svg xmlns="http://www.w3.org/2000/svg" xmlns:xlink="http://www.w3.org/1999/xlink" viewBox="0 0 1440 1440"><defs><style>.cls-1,.cls-13,.cls-4{fill:none;}.cls-2{fill:#fff;}.cls-3{clip-path:url(#clip-path);}.cls-13,.cls-4{stroke:#231f20;stroke-miterlimit:10;}.cls-4{stroke-width:38px;}.cls-5{clip-path:url(#clip-path-2);}.cls-6{clip-path:url(#clip-path-3);}.cls-7{clip-path:url(#clip-path-4);}.cls-8{fill:#231f20;}.cls-9{clip-path:url(#clip-path-5);}.cls-10{clip-path:url(#clip-path-6);}.cls-11{clip-path:url(#clip-path-7);}.cls-12{clip-path:url(#clip-path-8);}.cls-13{stroke-width:45px;}</style><clipPath id="clip-path"><polygon class="cls-1" points="959.09 886.38 763.14 1164.22 655.15 1085.52 851.1 807.68 959.09 886.38"/></clipPath><clipPath id="clip-path-2"><polygon class="cls-1" points="490.89 978.68 687.03 700.98 794.97 779.75 598.82 1057.46 490.89 978.68"/></clipPath><clipPath id="clip-path-3"><polygon class="cls-1" points="147.06 1341.23 -204.54 769.03 908.26 74.27 1259.86 646.47 147.06 1341.23"/></clipPath><clipPath id="clip-path-4"><rect class="cls-1" x="63.98" y="52.41" width="1115.49" height="1184.55"/></clipPath><clipPath id="clip-path-5"><rect class="cls-1" x="762.58" y="417.32" width="719.38" height="969.41" transform="matrix(0.57, -0.82, 0.82, 0.57, -260.2, 1304.44)"/></clipPath><clipPath id="clip-path-6"><rect class="cls-1" x="724.47" y="429.35" width="655.97" height="808.21"/></clipPath><clipPath id="clip-path-7"><rect class="cls-1" x="-143.05" y="-137.59" width="1735.04" height="1375.15"/></clipPath><clipPath id="clip-path-8"><rect class="cls-1" x="193.27" y="39.01" width="657.99" height="1345.83" transform="translate(838.16 -112.58) rotate(57.23)"/></clipPath></defs><title>AttowhiteInchs</title><g id="Layer_2" data-name="Layer 2"><rect class="cls-2" width="1440" height="1440"/></g><g id="Layer_1" data-name="Layer 1"><g class="cls-3"><circle class="cls-4" cx="725.4" cy="934.42" r="135.86"/></g><g class="cls-5"><circle class="cls-4" cx="724.61" cy="930.8" r="135.86"/></g><g class="cls-6"><g class="cls-7"><polygon class="cls-8" points="1022.3 61.96 957.54 15.87 89.8 1254.66 154.56 1300.76 1022.3 61.96"/></g></g><g class="cls-9"><g class="cls-10"><g class="cls-11"><g class="cls-12"><line class="cls-13" x1="119.53" y1="1277.14" x2="979.29" y2="59.48"/></g></g><rect class="cls-8" x="1012.01" y="386.33" width="83.08" height="975.77" transform="translate(-302.44 685.77) rotate(-31.77)"/></g></g></g></svg>