<svg xmlns="http://www.w3.org/2000/svg" xmlns:xlink="http://www.w3.org/1999/xlink" viewBox="0 0 1440 1440"><defs><style>.cls-1,.cls-4{fill:none;}.cls-2{fill:#231f20;}.cls-3{clip-path:url(#clip-path);}.cls-4{stroke:#fff;stroke-miterlimit:10;stroke-width:38px;}.cls-5{clip-path:url(#clip-path-2);}.cls-6{clip-path:url(#clip-path-3);}.cls-7{clip-path:url(#clip-path-4);}.cls-8{fill:#fff;}.cls-9{clip-path:url(#clip-path-5);}.cls-10{clip-path:url(#clip-path-6);}</style><clipPath id="clip-path"><polygon class="cls-1" points="927.09 941.38 731.14 1219.22 623.15 1140.52 819.1 862.68 927.09 941.38"/></clipPath><clipPath id="clip-path-2"><polygon class="cls-1" points="458.89 1033.68 655.03 755.98 762.97 834.75 566.82 1112.46 458.89 1033.68"/></clipPath><clipPath id="clip-path-3"><polygon class="cls-1" points="115.06 1396.23 -236.54 824.03 876.26 129.27 1227.86 701.47 115.06 1396.23"/></clipPath><clipPath id="clip-path-4"><rect class="cls-1" x="31.98" y="107.41" width="1115.49" height="1184.55"/></clipPath><clipPath id="clip-path-5"><rect class="cls-1" x="730.58" y="472.32" width="719.38" height="969.41" transform="matrix(0.57, -0.82, 0.82, 0.57, -318.92, 1301.69)"/></clipPath><clipPath id="clip-path-6"><rect class="cls-1" x="692.47" y="484.35" width="655.97" height="808.21"/></clipPath></defs><title>AttoBlackInchs</title><g id="Layer_2" data-name="Layer 2"><rect class="cls-2" width="1440" height="1440"/></g><g id="Layer_1" data-name="Layer 1"><g class="cls-3"><circle class="cls-4" cx="693.4" cy="989.42" r="135.86"/></g><g class="cls-5"><circle class="cls-4" cx="692.61" cy="985.8" r="135.86"/></g><g class="cls-6"><g class="cls-7"><polygon class="cls-8" points="990.3 116.96 925.54 70.87 57.8 1309.66 122.56 1355.76 990.3 116.96"/></g></g><g class="cls-9"><g class="cls-10"><rect class="cls-8" x="980.01" y="441.33" width="83.08" height="975.77" transform="translate(-336.2 677.17) rotate(-31.77)"/></g></g></g></svg>