<svg xmlns="http://www.w3.org/2000/svg" xmlns:xlink="http://www.w3.org/1999/xlink" viewBox="0 0 1255.97 1294.99"><defs><style>.cls-1,.cls-3{fill:none;}.cls-2{clip-path:url(#clip-path);}.cls-3{stroke:#fff;stroke-miterlimit:10;stroke-width:38px;}.cls-4{clip-path:url(#clip-path-2);}.cls-5{clip-path:url(#clip-path-3);}.cls-6{clip-path:url(#clip-path-4);}.cls-7{fill:#fff;}.cls-8{clip-path:url(#clip-path-5);}.cls-9{clip-path:url(#clip-path-6);}</style><clipPath id="clip-path" transform="translate(-57.8 -70.87)"><polygon class="cls-1" points="927.09 941.38 731.14 1219.22 623.15 1140.52 819.1 862.68 927.09 941.38"/></clipPath><clipPath id="clip-path-2" transform="translate(-57.8 -70.87)"><polygon class="cls-1" points="458.89 1033.68 655.03 755.98 762.97 834.75 566.82 1112.46 458.89 1033.68"/></clipPath><clipPath id="clip-path-3" transform="translate(-57.8 -70.87)"><polygon class="cls-1" points="115.06 1396.23 -236.54 824.03 876.26 129.27 1227.86 701.47 115.06 1396.23"/></clipPath><clipPath id="clip-path-4" transform="translate(-57.8 -70.87)"><rect class="cls-1" x="31.98" y="107.41" width="1115.49" height="1184.55"/></clipPath><clipPath id="clip-path-5" transform="translate(-57.8 -70.87)"><rect class="cls-1" x="730.58" y="472.32" width="719.38" height="969.41" transform="translate(-318.92 1301.69) rotate(-55.02)"/></clipPath><clipPath id="clip-path-6" transform="translate(-57.8 -70.87)"><rect class="cls-1" x="692.47" y="484.35" width="655.97" height="808.21"/></clipPath></defs><title>AttoBlackNoBkg</title><g id="Layer_1" data-name="Layer 1"><g class="cls-2"><circle class="cls-3" cx="635.61" cy="918.55" r="135.86"/></g><g class="cls-4"><circle class="cls-3" cx="634.81" cy="914.94" r="135.86"/></g><g class="cls-5"><g class="cls-6"><polygon class="cls-7" points="932.51 46.09 867.74 0 0 1238.79 64.77 1284.89 932.51 46.09"/></g></g><g class="cls-8"><g class="cls-9"><rect class="cls-7" x="980.01" y="441.33" width="83.08" height="975.77" transform="translate(-394 606.3) rotate(-31.77)"/></g></g></g></svg>